# xmcd
#
# Track frame offsets: 
#        150
#        22748
#        45383
#        66448
#
# Disc length: 1105 seconds
#
# Revision: 0
# Processed by: cddbd v1.5.2PL0 Copyright (c) Steve Scherf et al.
# Submitted via: ExactAudioCopy v0.99pb5
#
DISCID=28044f04
DTITLE=Digital Underground - Packet Man (The C.J. Mackintosh Remixes)
DYEAR=1990
DGENRE=R&B
TTITLE0=Packet Man (Worth A Packet Mix)
TTITLE1=Packet Man (Sax Pack Mix)
TTITLE2=Packet Man (Original LP-Mix)
TTITLE3=Packet Man (Analog Underground Mix)
EXTD=
EXTT0=
EXTT1=
EXTT2=
EXTT3=
PLAYORDER=
